# xmcd
#
# Track frame offsets:
#	150
#	4358
#	21352
#	40664
#	56128
#	75501
#	88597
#	107255
#	126610
#	139109
#	158127
#	175830
#	192251
#	212735
#	229409
#	249568
#	266681
#	283904
#	301346
#	315933
#	332301
#
# Disc length: 4736 seconds
#
# Revision: 1
# Processed by: cddbd v1.5.2PL0 Copyright (c) Steve Scherf et al.
# Submitted via: audiograbber 1.83.01
#
DISCID=22127e15
DTITLE=div - 50 Jahre Zdf Hitparade Cd3
DYEAR=2019
DGENRE=Schlager
TTITLE0=ZDF Hitparade Titelmelodie 1985 - Zdf Hitparade Titelmelodie 1985
TTITLE1=Mary Roos - Ich Bin Stark, Nur Mit Dir
TTITLE2=G. G. Anderson - Sommernacht In Rom
TTITLE3=Die Flippers - Die Rote Sonne Von Barbados
TTITLE4=Roy Black - In Japan Geht Die Sonne Auf
TTITLE5=Wind - Für Alle
TTITLE6=Münchener Freiheit - Ohne Dich (Schlaf' Ich Heut Nacht Nicht Ein)
TTITLE7=Clowns and Helden - Ich Liebe Dich
TTITLE8=Jürgen Von Der Lippe - Guten Morgen, Liebe Sorgen
TTITLE9=Rainhard Fendrich - Macho Macho
TTITLE10=David Hasselhoff - Looking For Freedom
TTITLE11=Matthias Reim - Verdammt Ich Lieb Dich
TTITLE12=Stefan Waggershausen and Viktor Lazlo - Das Erste Mal Tat's Noch Weh
TTITLE13=Blue System - Déjà Vu
TTITLE14=Nicki - Wie A Traum
TTITLE15=Nicole - Mit Dir Vielleicht
TTITLE16=Michelle - Und Heut' Nacht Will Ich Tanzen
TTITLE17=Brunner and Brunner - Schenk Mir Diese Eine Nacht
TTITLE18=Wolfgang Petry - Bronze, Silber Und Gold
TTITLE19=Roland Kaiser - Alles Was Du Willst
TTITLE20=Zdf Hitparade Titelmusik  1987 - The Final Countdown (Instrumental Ver
TTITLE20=sion)
EXTD=
EXTT0=
EXTT1=
EXTT2=
EXTT3=
EXTT4=
EXTT5=
EXTT6=
EXTT7=
EXTT8=
EXTT9=
EXTT10=
EXTT11=
EXTT12=
EXTT13=
EXTT14=
EXTT15=
EXTT16=
EXTT17=
EXTT18=
EXTT19=
EXTT20=
PLAYORDER=
